<svg version="1.1" xmlns="http://www.w3.org/2000/svg" xmlns:xlink="http://www.w3.org/1999/xlink" width="121.5" height="121.5" viewBox="0,0,121.5,121.5"><defs><radialGradient cx="240" cy="180" r="60.75" gradientUnits="userSpaceOnUse" id="color-1"><stop offset="0" stop-color="#ffac00"/><stop offset="1" stop-color="#ffac00" stop-opacity="0"/></radialGradient></defs><g transform="translate(-179.25,-119.25)"><g data-paper-data="{&quot;isPaintingLayer&quot;:true}" fill-rule="nonzero" stroke="none" stroke-width="0" stroke-linecap="butt" stroke-linejoin="miter" stroke-miterlimit="10" stroke-dasharray="" stroke-dashoffset="0" style="mix-blend-mode: normal"><path d="M179.25,180c0,-33.5513 27.1987,-60.75 60.75,-60.75c33.5513,0 60.75,27.1987 60.75,60.75c0,33.5513 -27.1987,60.75 -60.75,60.75c-33.5513,0 -60.75,-27.1987 -60.75,-60.75z" fill="url(#color-1)"/><path d="M215,180c0,-13.80712 11.19288,-25 25,-25c13.80712,0 25,11.19288 25,25c0,13.80712 -11.19288,25 -25,25c-13.80712,0 -25,-11.19288 -25,-25z" fill="#fff200"/><path d="M258.5,180c0,10.49341 -8.28273,19 -18.5,19c-10.21727,0 -18.5,-8.50659 -18.5,-19c0,-10.49341 8.28273,-19 18.5,-19c10.21727,0 18.5,8.50659 18.5,19z" fill="#fff871"/><path d="M226.75,180c0,-7.31777 5.93223,-13.25 13.25,-13.25c7.31777,0 13.25,5.93223 13.25,13.25c0,7.31777 -5.93223,13.25 -13.25,13.25c-7.31777,0 -13.25,-5.93223 -13.25,-13.25z" fill="#fffbb6"/><path d="M231.75,180c0,-4.55635 3.69365,-8.25 8.25,-8.25c4.55635,0 8.25,3.69365 8.25,8.25c0,4.55635 -3.69365,8.25 -8.25,8.25c-4.55635,0 -8.25,-3.69365 -8.25,-8.25z" fill="#ffffff"/></g></g></svg>