<svg version="1.1" xmlns="http://www.w3.org/2000/svg" xmlns:xlink="http://www.w3.org/1999/xlink" width="813.5" height="315.86718" viewBox="0,0,813.5,315.86718"><defs><radialGradient cx="249.5" cy="186.995" r="321" gradientUnits="userSpaceOnUse" id="color-1"><stop offset="0" stop-color="#ffffff"/><stop offset="1" stop-color="#ffffff" stop-opacity="0"/></radialGradient></defs><g transform="translate(269,-26.00001)"><g data-paper-data="{&quot;isPaintingLayer&quot;:true}" fill-rule="nonzero" stroke="none" stroke-linecap="butt" stroke-linejoin="miter" stroke-miterlimit="10" stroke-dasharray="" stroke-dashoffset="0" style="mix-blend-mode: normal"><path d="M-269,28.50001c0,-1.38071 1.11929,-2.5 2.5,-2.5c1.38071,0 2.5,1.11929 2.5,2.5c0,1.38071 -1.11929,2.5 -2.5,2.5c-1.38071,0 -2.5,-1.11929 -2.5,-2.5z" fill="#ffffff" stroke-width="0.5"/><path d="M405.5,128.54607c0,1.55659 7.14756,5.49424 16.25465,2.60474c9.77591,-3.1017 21.962,-13.15648 34.61506,-14.7112c11.96096,-1.46968 17.39367,5.86102 19.87516,11.25813c2.76973,6.02401 1.37121,10.62237 -8.7837,17.99343c-7.49324,5.43906 -9.1579,-7.95074 -19.92538,-5.05792c-24.94475,6.70174 -22.80832,8.55336 -46.30429,21.37471c-6.65162,3.62967 -30.89837,15.32589 -43.69388,16.81526c-15.61051,1.81704 -20.0378,-6.67377 -28.11844,-2.33716c-16.63931,8.92978 -21.01322,6.80342 -32.38526,15.11314c-10.27203,7.50593 -20.17434,14.91995 -40.53392,14.91995c-8.9436,0 -23.34318,12.06774 -33.04618,12.34101c-18.92909,0.53311 -8.17957,-15.42949 -26.05205,-17.52055c-17.2584,-2.01922 -39.98694,6.90912 -67.326,18.91799c-10.16644,4.46567 -2.36938,17.62322 -15.07155,25.629c-8.26484,5.20907 -38.47095,5.93053 -42.54207,8.55465c-8.14896,5.25259 -18.43072,3.01498 -32.02428,4.48366c-16.8805,1.82381 -37.24182,7.19468 -45.85199,14.23371c-57.41425,46.93756 -67.08588,105.68157 -67.08588,38.11334c0,-40.83311 63.85471,-63.18595 90.70387,-78.10462c22.7348,-12.63253 3.83494,-18.74542 23.16641,-25.06419c7.2808,-2.37983 40.5803,-5.64702 53.60094,-8.05402c10.24829,-1.8945 42.80758,-6.77318 50.83603,-10.34934c13.17547,-5.86882 0.92128,-11.61607 16.35624,-19.97457c9.30157,-5.03708 34.68096,-23.01571 44.31333,-27.44854c6.31831,-2.90769 17.49369,1.82921 24.82093,1.31899c8.93447,-0.62213 14.09473,-6.12488 22.20224,-6.12488c8.96629,0 15.66629,6.45133 23.36693,10.27954c10.95286,5.44499 15.907,19.65242 30.50791,17.77582c10.98791,-1.41223 13.56801,-14.39356 27.67348,-20.82328c10.64989,-4.85456 33.45917,-2.96472 39.81667,-6.55694c25.64855,-14.49236 25.25116,-27.06437 38.64904,-41.71889c3.92623,-4.29449 16.61689,-2.76002 24.47865,-7.72964c6.88233,-4.3505 8.89578,-15.32096 13.62965,-17.79305c13.7448,-7.17771 30.12814,-6.69651 41.03795,-7.75963c35.89584,-3.49791 51.83973,15.5885 51.83973,22.40131c0,0 -40.41732,5.21679 -62.95997,18.66967c-5.33546,3.18406 -37.3692,1.1985 -48.24622,7.03728c-14.53688,7.8034 -27.79382,17.29306 -27.79382,17.29306z" fill="url(#color-1)" stroke-width="0"/></g></g></svg>