<svg version="1.1" xmlns="http://www.w3.org/2000/svg" xmlns:xlink="http://www.w3.org/1999/xlink" width="338.56311" height="12.38723" viewBox="0,0,338.56311,12.38723"><defs><radialGradient cx="516" cy="175.00002" r="0.5" gradientUnits="userSpaceOnUse" id="color-1"><stop offset="0" stop-color="#adfffb"/><stop offset="1" stop-color="#adfffb" stop-opacity="0"/></radialGradient><linearGradient x1="242.29292" y1="179.25666" x2="177.93689" y2="179.25666" gradientUnits="userSpaceOnUse" id="color-2"><stop offset="0" stop-color="#caff9b"/><stop offset="1" stop-color="#caff9b" stop-opacity="0"/></linearGradient></defs><g transform="translate(-177.93689,-173.06305)"><g data-paper-data="{&quot;isPaintingLayer&quot;:true}" fill-rule="nonzero" stroke="none" stroke-width="0" stroke-linecap="butt" stroke-linejoin="miter" stroke-miterlimit="10" stroke-dasharray="" stroke-dashoffset="0" style="mix-blend-mode: normal"><path d="M515.5,175.00002c0,-0.27614 0.22386,-0.5 0.5,-0.5c0.27614,0 0.5,0.22386 0.5,0.5c0,0.27614 -0.22386,0.5 -0.5,0.5c-0.27614,0 -0.5,-0.22386 -0.5,-0.5z" fill="url(#color-1)"/><g><path d="M242.29292,179.25667c0,3.42064 -14.40662,6.19362 -32.17802,6.19362c-17.77144,0 -32.17802,-2.773 -32.17802,-6.19362c0,-3.42064 14.40662,-6.19362 32.17802,-6.19362c17.77144,0 32.17802,2.773 32.17802,6.19362z" data-paper-data="{&quot;index&quot;:null}" fill="url(#color-2)"/><path d="M243.94497,179.44773c0,1.90606 -1.54516,3.45122 -3.45122,3.45122c-1.90606,0 -3.45122,-1.54516 -3.45122,-3.45122c0,-1.90606 1.54516,-3.45122 3.45122,-3.45122c1.90606,0 3.45122,1.54516 3.45122,3.45122z" data-paper-data="{&quot;index&quot;:null}" fill="#f6ff5b"/></g></g></g></svg>