<svg version="1.1" xmlns="http://www.w3.org/2000/svg" xmlns:xlink="http://www.w3.org/1999/xlink" width="303.87218" height="54.82664" viewBox="0,0,303.87218,54.82664"><defs><radialGradient cx="516" cy="175" r="0.5" gradientUnits="userSpaceOnUse" id="color-1"><stop offset="0" stop-color="#adfffb"/><stop offset="1" stop-color="#adfffb" stop-opacity="0"/></radialGradient><radialGradient cx="240" cy="180" r="27.37218" gradientUnits="userSpaceOnUse" id="color-2"><stop offset="0" stop-color="#ffdfad"/><stop offset="1" stop-color="#ffdfad" stop-opacity="0"/></radialGradient></defs><g transform="translate(-212.62782,-152.54554)"><g data-paper-data="{&quot;isPaintingLayer&quot;:true}" fill-rule="nonzero" stroke="none" stroke-linecap="butt" stroke-linejoin="miter" stroke-miterlimit="10" stroke-dasharray="" stroke-dashoffset="0" style="mix-blend-mode: normal"><path d="M515.5,175c0,-0.27614 0.22386,-0.5 0.5,-0.5c0.27614,0 0.5,0.22386 0.5,0.5c0,0.27614 -0.22386,0.5 -0.5,0.5c-0.27614,0 -0.5,-0.22386 -0.5,-0.5z" fill="url(#color-1)" stroke-width="0"/><path d="M212.62782,180c0,-15.11723 12.25495,-27.37218 27.37218,-27.37218c15.11723,0 27.37218,12.25495 27.37218,27.37218c0,15.11723 -12.25495,27.37218 -27.37218,27.37218c-15.11723,0 -27.37218,-12.25495 -27.37218,-27.37218z" fill="url(#color-2)" stroke-width="0"/><path d="M225.46909,180c0,-8.0252 6.5057,-14.53091 14.53091,-14.53091c8.0252,0 14.53091,6.5057 14.53091,14.53091c0,8.0252 -6.5057,14.53091 -14.53091,14.53091c-8.0252,0 -14.53091,-6.5057 -14.53091,-14.53091z" fill="#ff9f00" stroke-width="0"/><path d="M274.02581,178.19969c0,-1.38071 1.11929,-2.5 2.5,-2.5c1.38071,0 2.5,1.11929 2.5,2.5c0,1.38071 -1.11929,2.5 -2.5,2.5c-1.38071,0 -2.5,-1.11929 -2.5,-2.5z" fill="#b3b3b3" stroke-width="0.5"/><path d="M242.77037,156.59602c0,-0.9665 0.7835,-1.75 1.75,-1.75c0.9665,0 1.75,0.7835 1.75,1.75c0,0.9665 -0.7835,1.75 -1.75,1.75c-0.9665,0 -1.75,-0.7835 -1.75,-1.75z" fill="#b3b3b3" stroke-width="0.5"/><path d="M231.26832,153.79554c0,-0.69036 0.55964,-1.25 1.25,-1.25c0.69036,0 1.25,0.55964 1.25,1.25c0,0.69036 -0.55964,1.25 -1.25,1.25c-0.69036,0 -1.25,-0.55964 -1.25,-1.25z" fill="#b3b3b3" stroke-width="0.5"/><path d="M261.6735,189.80167c0,-0.69036 0.55964,-1.25 1.25,-1.25c0.69036,0 1.25,0.55964 1.25,1.25c0,0.69036 -0.55964,1.25 -1.25,1.25c-0.69036,0 -1.25,-0.55964 -1.25,-1.25z" fill="#b3b3b3" stroke-width="0.5"/></g></g></svg>