<svg version="1.1" xmlns="http://www.w3.org/2000/svg" xmlns:xlink="http://www.w3.org/1999/xlink" width="287.91568" height="24.0465" viewBox="0,0,287.91568,24.0465"><defs><radialGradient cx="516" cy="175" r="0.5" gradientUnits="userSpaceOnUse" id="color-1"><stop offset="0" stop-color="#adfffb"/><stop offset="1" stop-color="#adfffb" stop-opacity="0"/></radialGradient><radialGradient cx="240" cy="180" r="11.41568" gradientUnits="userSpaceOnUse" id="color-2"><stop offset="0" stop-color="#ffadad"/><stop offset="1" stop-color="#ffadad" stop-opacity="0"/></radialGradient></defs><g transform="translate(-228.58432,-167.36918)"><g data-paper-data="{&quot;isPaintingLayer&quot;:true}" fill-rule="nonzero" stroke="none" stroke-linecap="butt" stroke-linejoin="miter" stroke-miterlimit="10" stroke-dasharray="" stroke-dashoffset="0" style="mix-blend-mode: normal"><path d="M515.5,175c0,-0.27614 0.22386,-0.5 0.5,-0.5c0.27614,0 0.5,0.22386 0.5,0.5c0,0.27614 -0.22386,0.5 -0.5,0.5c-0.27614,0 -0.5,-0.22386 -0.5,-0.5z" fill="url(#color-1)" stroke-width="0"/><path d="M228.58432,180c0,-6.30471 5.11098,-11.41568 11.41568,-11.41568c6.30471,0 11.41568,5.11098 11.41568,11.41568c0,6.30471 -5.11098,11.41568 -11.41568,11.41568c-6.30471,0 -11.41568,-5.11098 -11.41568,-11.41568z" fill="url(#color-2)" stroke-width="0"/><path d="M237.25178,180c0,-1.5178 1.23042,-2.74822 2.74822,-2.74822c1.5178,0 2.74822,1.23042 2.74822,2.74822c0,1.5178 -1.23042,2.74822 -2.74822,2.74822c-1.5178,0 -2.74822,-1.23042 -2.74822,-2.74822z" fill="#ff5500" stroke-width="0"/><path d="M252.56634,179.29748c0,-0.69036 0.55964,-1.25 1.25,-1.25c0.69036,0 1.25,0.55964 1.25,1.25c0,0.69036 -0.55964,1.25 -1.25,1.25c-0.69036,0 -1.25,-0.55964 -1.25,-1.25z" fill="#b3b3b3" stroke-width="0.5"/><path d="M237.67293,168.61918c0,-0.69036 0.55964,-1.25 1.25,-1.25c0.69036,0 1.25,0.55964 1.25,1.25c0,0.69036 -0.55964,1.25 -1.25,1.25c-0.69036,0 -1.25,-0.55964 -1.25,-1.25z" fill="#b3b3b3" stroke-width="0.5"/></g></g></svg>