<svg version="1.1" xmlns="http://www.w3.org/2000/svg" xmlns:xlink="http://www.w3.org/1999/xlink" width="290.94004" height="28.88008" viewBox="0,0,290.94004,28.88008"><defs><radialGradient cx="516" cy="175" r="0.5" gradientUnits="userSpaceOnUse" id="color-1"><stop offset="0" stop-color="#adfffb"/><stop offset="1" stop-color="#adfffb" stop-opacity="0"/></radialGradient><radialGradient cx="240" cy="180" r="14.44004" gradientUnits="userSpaceOnUse" id="color-2"><stop offset="0" stop-color="#d4bd90"/><stop offset="1" stop-color="#d4bd90" stop-opacity="0"/></radialGradient></defs><g transform="translate(-225.55996,-165.55996)"><g data-paper-data="{&quot;isPaintingLayer&quot;:true}" fill-rule="nonzero" stroke="none" stroke-width="0" stroke-linecap="butt" stroke-linejoin="miter" stroke-miterlimit="10" stroke-dasharray="" stroke-dashoffset="0" style="mix-blend-mode: normal"><path d="M515.5,175c0,-0.27614 0.22386,-0.5 0.5,-0.5c0.27614,0 0.5,0.22386 0.5,0.5c0,0.27614 -0.22386,0.5 -0.5,0.5c-0.27614,0 -0.5,-0.22386 -0.5,-0.5z" fill="url(#color-1)"/><path d="M225.55996,180c0,-7.97501 6.46503,-14.44004 14.44004,-14.44004c7.97501,0 14.44004,6.46503 14.44004,14.44004c0,7.97501 -6.46503,14.44004 -14.44004,14.44004c-7.97501,0 -14.44004,-6.46503 -14.44004,-14.44004z" fill="url(#color-2)"/><path d="M234.74098,180c0,-2.90448 2.35455,-5.25902 5.25902,-5.25902c2.90448,0 5.25902,2.35455 5.25902,5.25902c0,2.90448 -2.35455,5.25902 -5.25902,5.25902c-2.90448,0 -5.25902,-2.35455 -5.25902,-5.25902z" fill="#d4a138"/></g></g></svg>