<svg version="1.1" xmlns="http://www.w3.org/2000/svg" xmlns:xlink="http://www.w3.org/1999/xlink" width="298.87131" height="44.74266" viewBox="0,0,298.87131,44.74266"><defs><radialGradient cx="516.00001" cy="175.00004" r="0.5" gradientUnits="userSpaceOnUse" id="color-1"><stop offset="0" stop-color="#adfffb"/><stop offset="1" stop-color="#adfffb" stop-opacity="0"/></radialGradient><radialGradient cx="240.00004" cy="180.00004" r="22.37133" gradientUnits="userSpaceOnUse" id="color-2"><stop offset="0" stop-color="#a7cdff"/><stop offset="1" stop-color="#a7cdff" stop-opacity="0"/></radialGradient></defs><g transform="translate(-217.6287,-157.6287)"><g data-paper-data="{&quot;isPaintingLayer&quot;:true}" fill-rule="nonzero" stroke="none" stroke-width="0" stroke-linecap="butt" stroke-linejoin="miter" stroke-miterlimit="10" stroke-dasharray="" stroke-dashoffset="0" style="mix-blend-mode: normal"><path d="M515.50001,175.00004c0,-0.27614 0.22386,-0.5 0.5,-0.5c0.27614,0 0.5,0.22386 0.5,0.5c0,0.27614 -0.22386,0.5 -0.5,0.5c-0.27614,0 -0.5,-0.22386 -0.5,-0.5z" fill="url(#color-1)"/><path d="M217.62871,180.00004c0,-12.35534 10.01599,-22.37133 22.37133,-22.37133c12.35534,0 22.37133,10.01599 22.37133,22.37133c0,12.35534 -10.01599,22.37133 -22.37133,22.37133c-12.35534,0 -22.37133,-10.01599 -22.37133,-22.37133z" fill="url(#color-2)"/><path d="M231.77523,180c0,-4.54241 3.68235,-8.22477 8.22477,-8.22477c4.54241,0 8.22477,3.68235 8.22477,8.22477c0,4.54241 -3.68235,8.22477 -8.22477,8.22477c-4.54241,0 -8.22477,-3.68235 -8.22477,-8.22477z" fill="#a7cdff"/></g></g></svg>