<svg version="1.1" xmlns="http://www.w3.org/2000/svg" xmlns:xlink="http://www.w3.org/1999/xlink" width="303.3508" height="53.70158" viewBox="0,0,303.3508,53.70158"><defs><radialGradient cx="516.00001" cy="175.00002" r="0.5" gradientUnits="userSpaceOnUse" id="color-1"><stop offset="0" stop-color="#adfffb"/><stop offset="1" stop-color="#adfffb" stop-opacity="0"/></radialGradient><radialGradient cx="240" cy="180" r="26.85079" gradientUnits="userSpaceOnUse" id="color-2"><stop offset="0" stop-color="#adffda"/><stop offset="1" stop-color="#adffda" stop-opacity="0"/></radialGradient></defs><g transform="translate(-213.14921,-153.14921)"><g data-paper-data="{&quot;isPaintingLayer&quot;:true}" fill-rule="nonzero" stroke-linecap="butt" stroke-linejoin="miter" stroke-miterlimit="10" stroke-dasharray="" stroke-dashoffset="0" style="mix-blend-mode: normal"><path d="M515.50001,175.00002c0,-0.27614 0.22386,-0.5 0.5,-0.5c0.27614,0 0.5,0.22386 0.5,0.5c0,0.27614 -0.22386,0.5 -0.5,0.5c-0.27614,0 -0.5,-0.22386 -0.5,-0.5z" fill="url(#color-1)" stroke="none" stroke-width="0"/><path d="M213.14921,180c0,-14.82927 12.02151,-26.85079 26.85079,-26.85079c14.82927,0 26.85079,12.02151 26.85079,26.85079c0,14.82927 -12.02151,26.85079 -26.85079,26.85079c-14.82927,0 -26.85079,-12.02151 -26.85079,-26.85079z" fill="url(#color-2)" stroke="none" stroke-width="0"/><path d="M230.12837,180c0,-5.45195 4.41967,-9.87163 9.87163,-9.87163c5.45195,0 9.87163,4.41967 9.87163,9.87163c0,5.45195 -4.41967,9.87163 -9.87163,9.87163c-5.45195,0 -9.87163,-4.41967 -9.87163,-9.87163z" fill="#00ff8d" stroke="none" stroke-width="0"/><path d="M224.90474,179.99999c0,-2.91791 6.75837,-5.28335 15.09525,-5.28335c8.33687,0 15.09525,2.36544 15.09525,5.28335c0,2.91791 -6.75837,5.28335 -15.09525,5.28335c-8.33687,0 -15.09525,-2.36544 -15.09525,-5.28335z" fill="none" stroke="#00ff8d" stroke-width="2.5"/></g></g></svg>