<svg version="1.1" xmlns="http://www.w3.org/2000/svg" xmlns:xlink="http://www.w3.org/1999/xlink" width="298.87132" height="44.74266" viewBox="0,0,298.87132,44.74266"><defs><radialGradient cx="516.00001" cy="175.00003" r="0.5" gradientUnits="userSpaceOnUse" id="color-1"><stop offset="0" stop-color="#adfffb"/><stop offset="1" stop-color="#adfffb" stop-opacity="0"/></radialGradient><radialGradient cx="240.00003" cy="180.00003" r="22.37133" gradientUnits="userSpaceOnUse" id="color-2"><stop offset="0" stop-color="#adfffe"/><stop offset="1" stop-color="#adfffe" stop-opacity="0"/></radialGradient></defs><g transform="translate(-217.62869,-157.62869)"><g data-paper-data="{&quot;isPaintingLayer&quot;:true}" fill-rule="nonzero" stroke-linecap="butt" stroke-linejoin="miter" stroke-miterlimit="10" stroke-dasharray="" stroke-dashoffset="0" style="mix-blend-mode: normal"><path d="M515.50001,175.00003c0,-0.27614 0.22386,-0.5 0.5,-0.5c0.27614,0 0.5,0.22386 0.5,0.5c0,0.27614 -0.22386,0.5 -0.5,0.5c-0.27614,0 -0.5,-0.22386 -0.5,-0.5z" fill="url(#color-1)" stroke="none" stroke-width="0"/><path d="M217.6287,180.00003c0,-12.35534 10.01599,-22.37133 22.37133,-22.37133c12.35534,0 22.37133,10.01599 22.37133,22.37133c0,12.35534 -10.01599,22.37133 -22.37133,22.37133c-12.35534,0 -22.37133,-10.01599 -22.37133,-22.37133z" fill="url(#color-2)" stroke="none" stroke-width="0"/><path d="M231.77526,180.00003c0,-4.54241 3.68235,-8.22477 8.22477,-8.22477c4.54241,0 8.22477,3.68235 8.22477,8.22477c0,4.54241 -3.68235,8.22477 -8.22477,8.22477c-4.54241,0 -8.22477,-3.68235 -8.22477,-8.22477z" fill="#00fffb" stroke="none" stroke-width="0"/><path d="M242.91165,180c0,7.6692 -1.30359,13.88631 -2.91165,13.88631c-1.60806,0 -2.91165,-6.21711 -2.91165,-13.88631c0,-7.6692 1.30359,-13.88631 2.91165,-13.88631c1.60806,0 2.91165,6.21711 2.91165,13.88631z" fill="none" stroke="#00fffb" stroke-width="3"/></g></g></svg>