<svg version="1.1" xmlns="http://www.w3.org/2000/svg" xmlns:xlink="http://www.w3.org/1999/xlink" width="788.5197" height="604.8206" viewBox="0,0,788.5197,604.8206"><g transform="translate(75.625,115.25)"><g data-paper-data="{&quot;isPaintingLayer&quot;:true}" fill="#9a9a9a" fill-rule="nonzero" stroke="none" stroke-width="0.5" stroke-linecap="butt" stroke-linejoin="miter" stroke-miterlimit="10" stroke-dasharray="" stroke-dashoffset="0" style="mix-blend-mode: normal"><path d="M0.62745,-0.00481c0,-1.11664 0.90521,-2.02185 2.02185,-2.02185c1.11664,0 2.02185,0.90521 2.02185,2.02185c0,1.11664 -0.90521,2.02185 -2.02185,2.02185c-1.11664,0 -2.02185,-0.90521 -2.02185,-2.02185z"/><path d="M-16.70265,10.39325c0,-1.11664 0.90521,-2.02185 2.02185,-2.02185c1.11664,0 2.02185,0.90521 2.02185,2.02185c0,1.11664 -0.90521,2.02185 -2.02185,2.02185c-1.11664,0 -2.02185,-0.90521 -2.02185,-2.02185z"/><path d="M-22.47935,24.25733c0,-1.11664 0.90521,-2.02185 2.02185,-2.02185c1.11664,0 2.02185,0.90521 2.02185,2.02185c0,1.11664 -0.90521,2.02185 -2.02185,2.02185c-1.11664,0 -2.02185,-0.90521 -2.02185,-2.02185z"/><path d="M-31.72207,40.43209c0,-1.11664 0.90521,-2.02185 2.02185,-2.02185c1.11664,0 2.02185,0.90521 2.02185,2.02185c0,1.11664 -0.90521,2.02185 -2.02185,2.02185c-1.11664,0 -2.02185,-0.90521 -2.02185,-2.02185z"/><path d="M-27.10071,35.81073c0,-1.11664 0.90521,-2.02185 2.02185,-2.02185c1.11664,0 2.02185,0.90521 2.02185,2.02185c0,1.11664 -0.90521,2.02185 -2.02185,2.02185c-1.11664,0 -2.02185,-0.90521 -2.02185,-2.02185z"/><path d="M-49.05217,56.60686c0,-1.11664 0.90521,-2.02185 2.02185,-2.02185c1.11664,0 2.02185,0.90521 2.02185,2.02185c0,1.11664 -0.90521,2.02185 -2.02185,2.02185c-1.11664,0 -2.02185,-0.90521 -2.02185,-2.02185z"/><path d="M-36.34343,56.60686c0,-1.11664 0.90521,-2.02185 2.02185,-2.02185c1.11664,0 2.02185,0.90521 2.02185,2.02185c0,1.11664 -0.90521,2.02185 -2.02185,2.02185c-1.11664,0 -2.02185,-0.90521 -2.02185,-2.02185z"/><path d="M-49.05217,75.0923c0,-1.11664 0.90521,-2.02185 2.02185,-2.02185c1.11664,0 2.02185,0.90521 2.02185,2.02185c0,1.11664 -0.90521,2.02185 -2.02185,2.02185c-1.11664,0 -2.02185,-0.90521 -2.02185,-2.02185z"/><path d="M-47.89683,68.16026c0,-1.11664 0.90521,-2.02185 2.02185,-2.02185c1.11664,0 2.02185,0.90521 2.02185,2.02185c0,1.11664 -0.90521,2.02185 -2.02185,2.02185c-1.11664,0 -2.02185,-0.90521 -2.02185,-2.02185z"/><path d="M-53.67354,91.26706c0,-1.11664 0.90521,-2.02185 2.02185,-2.02185c1.11664,0 2.02185,0.90521 2.02185,2.02185c0,1.11664 -0.90521,2.02185 -2.02185,2.02185c-1.11664,0 -2.02185,-0.90521 -2.02185,-2.02185z"/><path d="M-62.91626,103.97581c0,-1.11664 0.90521,-2.02185 2.02185,-2.02185c1.11664,0 2.02185,0.90521 2.02185,2.02185c0,1.11664 -0.90521,2.02185 -2.02185,2.02185c-1.11664,0 -2.02185,-0.90521 -2.02185,-2.02185z"/><path d="M-65.22694,125.92727c0,-1.11664 0.90521,-2.02185 2.02185,-2.02185c1.11664,0 2.02185,0.90521 2.02185,2.02185c0,1.11664 -0.90521,2.02185 -2.02185,2.02185c-1.11664,0 -2.02185,-0.90521 -2.02185,-2.02185z"/><path d="M-68.69296,149.03407c0,-1.11664 0.90521,-2.02185 2.02185,-2.02185c1.11664,0 2.02185,0.90521 2.02185,2.02185c0,1.11664 -0.90521,2.02185 -2.02185,2.02185c-1.11664,0 -2.02185,-0.90521 -2.02185,-2.02185z"/><path d="M-69.8483,162.89816c0,-1.11664 0.90521,-2.02185 2.02185,-2.02185c1.11664,0 2.02185,0.90521 2.02185,2.02185c0,1.11664 -0.90521,2.02185 -2.02185,2.02185c-1.11664,0 -2.02185,-0.90521 -2.02185,-2.02185z"/><path d="M-75.625,165.20884c0,-1.11664 0.90521,-2.02185 2.02185,-2.02185c1.11664,0 2.02185,0.90521 2.02185,2.02185c0,1.11664 -0.90521,2.02185 -2.02185,2.02185c-1.11664,0 -2.02185,-0.90521 -2.02185,-2.02185z"/><path d="M-68.69296,218.35449c0,-1.11664 0.90521,-2.02185 2.02185,-2.02185c1.11664,0 2.02185,0.90521 2.02185,2.02185c0,1.11664 -0.90521,2.02185 -2.02185,2.02185c-1.11664,0 -2.02185,-0.90521 -2.02185,-2.02185z"/><path d="M-71.00364,237.99527c0,-1.11664 0.90521,-2.02185 2.02185,-2.02185c1.11664,0 2.02185,0.90521 2.02185,2.02185c0,1.11664 -0.90521,2.02185 -2.02185,2.02185c-1.11664,0 -2.02185,-0.90521 -2.02185,-2.02185z"/><path d="M-62.91626,250.70401c0,-1.11664 0.90521,-2.02185 2.02185,-2.02185c1.11664,0 2.02185,0.90521 2.02185,2.02185c0,1.11664 -0.90521,2.02185 -2.02185,2.02185c-1.11664,0 -2.02185,-0.90521 -2.02185,-2.02185z"/><path d="M-57.13956,274.96616c0,-1.11664 0.90521,-2.02185 2.02185,-2.02185c1.11664,0 2.02185,0.90521 2.02185,2.02185c0,1.11664 -0.90521,2.02185 -2.02185,2.02185c-1.11664,0 -2.02185,-0.90521 -2.02185,-2.02185z"/><path d="M-51.36286,294.60694c0,-1.11664 0.90521,-2.02185 2.02185,-2.02185c1.11664,0 2.02185,0.90521 2.02185,2.02185c0,1.11664 -0.90521,2.02185 -2.02185,2.02185c-1.11664,0 -2.02185,-0.90521 -2.02185,-2.02185z"/><path d="M-50.20752,313.09239c0,-1.11664 0.90521,-2.02185 2.02185,-2.02185c1.11664,0 2.02185,0.90521 2.02185,2.02185c0,1.11664 -0.90521,2.02185 -2.02185,2.02185c-1.11664,0 -2.02185,-0.90521 -2.02185,-2.02185z"/><path d="M-36.34343,328.11181c0,-1.11664 0.90521,-2.02185 2.02185,-2.02185c1.11664,0 2.02185,0.90521 2.02185,2.02185c0,1.11664 -0.90521,2.02185 -2.02185,2.02185c-1.11664,0 -2.02185,-0.90521 -2.02185,-2.02185z"/><path d="M-25.94537,346.59725c0,-1.11664 0.90521,-2.02185 2.02185,-2.02185c1.11664,0 2.02185,0.90521 2.02185,2.02185c0,1.11664 -0.90521,2.02185 -2.02185,2.02185c-1.11664,0 -2.02185,-0.90521 -2.02185,-2.02185z"/><path d="M-13.23663,350.06327c0,-1.11664 0.90521,-2.02185 2.02185,-2.02185c1.11664,0 2.02185,0.90521 2.02185,2.02185c0,1.11664 -0.90521,2.02185 -2.02185,2.02185c-1.11664,0 -2.02185,-0.90521 -2.02185,-2.02185z"/><path d="M0.62745,369.70406c0,-1.11664 0.90521,-2.02185 2.02185,-2.02185c1.11664,0 2.02185,0.90521 2.02185,2.02185c0,1.11664 -0.90521,2.02185 -2.02185,2.02185c-1.11664,0 -2.02185,-0.90521 -2.02185,-2.02185z"/><path d="M-1.68323,383.56814c0,-1.11664 0.90521,-2.02185 2.02185,-2.02185c1.11664,0 2.02185,0.90521 2.02185,2.02185c0,1.11664 -0.90521,2.02185 -2.02185,2.02185c-1.11664,0 -2.02185,-0.90521 -2.02185,-2.02185z"/><path d="M9.87018,384.72348c0,-1.11664 0.90521,-2.02185 2.02185,-2.02185c1.11664,0 2.02185,0.90521 2.02185,2.02185c0,1.11664 -0.90521,2.02185 -2.02185,2.02185c-1.11664,0 -2.02185,-0.90521 -2.02185,-2.02185z"/><path d="M20.26824,400.89824c0,-1.11664 0.90521,-2.02185 2.02185,-2.02185c1.11664,0 2.02185,0.90521 2.02185,2.02185c0,1.11664 -0.90521,2.02185 -2.02185,2.02185c-1.11664,0 -2.02185,-0.90521 -2.02185,-2.02185z"/><path d="M34.13232,404.36426c0,-1.11664 0.90521,-2.02185 2.02185,-2.02185c1.11664,0 2.02185,0.90521 2.02185,2.02185c0,1.11664 -0.90521,2.02185 -2.02185,2.02185c-1.11664,0 -2.02185,-0.90521 -2.02185,-2.02185z"/><path d="M51.17359,420.82786c1.11664,0 2.02185,0.90521 2.02185,2.02185c0,1.11664 -0.90521,2.02185 -2.02185,2.02185c-0.73547,0 -1.37922,-0.3927 -1.73301,-0.97984c-0.35379,0.58716 -0.99754,0.97984 -1.73301,0.97984c-1.11664,0 -2.02185,-0.90521 -2.02185,-2.02185c0,-1.11664 0.90521,-2.02185 2.02185,-2.02185c0.73547,0 1.37922,0.3927 1.73301,0.97984c0.35379,-0.58716 0.99754,-0.97984 1.73301,-0.97984z"/><path d="M75.72457,433.24777c0,-1.11664 0.90521,-2.02185 2.02185,-2.02185c1.11664,0 2.02185,0.90521 2.02185,2.02185c0,1.11664 -0.90521,2.02185 -2.02185,2.02185c-1.11664,0 -2.02185,-0.90521 -2.02185,-2.02185z"/><path d="M82.65661,442.49049c0,-1.11664 0.90521,-2.02185 2.02185,-2.02185c1.11664,0 2.02185,0.90521 2.02185,2.02185c0,1.11664 -0.90521,2.02185 -2.02185,2.02185c-1.11664,0 -2.02185,-0.90521 -2.02185,-2.02185z"/><path d="M106.91875,445.95651c0,-1.11664 0.90521,-2.02185 2.02185,-2.02185c1.11664,0 2.02185,0.90521 2.02185,2.02185c0,1.11664 -0.90521,2.02185 -2.02185,2.02185c-1.11664,0 -2.02185,-0.90521 -2.02185,-2.02185z"/><path d="M121.36051,463.28661c0,2.02185 -2.02185,2.02185 -2.02185,2.02185h-2.31068c0,0 -2.02185,0 -2.02185,-2.02185c0,-2.02185 2.02185,-2.02185 2.02185,-2.02185h2.31068c0,0 2.02185,0 2.02185,2.02185z"/><path d="M143.88964,467.90798c0,-1.11664 0.90521,-2.02185 2.02185,-2.02185c1.11664,0 2.02185,0.90521 2.02185,2.02185c0,1.11664 -0.90521,2.02185 -2.02185,2.02185c-1.11664,0 -2.02185,-0.90521 -2.02185,-2.02185z"/><path d="M158.62023,476.86186c-2.02185,0 -2.02185,-2.02185 -2.02185,-2.02185l0.59218,0.27432c-0.77023,-0.77023 -1.54045,-1.54045 -2.31068,-2.31068c0,0 -1.42966,-1.42966 0,-2.85932c1.42966,-1.42966 2.85932,0 2.85932,0c0.77023,0.77023 1.54045,1.54045 2.31068,2.31068l0.59218,2.585c0,0 0,2.02185 -2.02185,2.02185z"/><path d="M178.54985,481.77206c0,-1.11664 0.90521,-2.02185 2.02185,-2.02185c1.11664,0 2.02185,0.90521 2.02185,2.02185c0,1.11664 -0.90521,2.02185 -2.02185,2.02185c-1.11664,0 -2.02185,-0.90521 -2.02185,-2.02185z"/><path d="M192.41393,479.46138c0,-1.11664 0.90521,-2.02185 2.02185,-2.02185c1.11664,0 2.02185,0.90521 2.02185,2.02185c0,1.11664 -0.90521,2.02185 -2.02185,2.02185c-1.11664,0 -2.02185,-0.90521 -2.02185,-2.02185z"/><path d="M201.65665,486.39342c0,-1.11664 0.90521,-2.02185 2.02185,-2.02185c1.11664,0 2.02185,0.90521 2.02185,2.02185c0,1.11664 -0.90521,2.02185 -2.02185,2.02185c-1.11664,0 -2.02185,-0.90521 -2.02185,-2.02185z"/><path d="M220.1421,475.99536c0,-1.11664 0.90521,-2.02185 2.02185,-2.02185c1.11664,0 2.02185,0.90521 2.02185,2.02185c0,1.11664 -0.90521,2.02185 -2.02185,2.02185c-1.11664,0 -2.02185,-0.90521 -2.02185,-2.02185z"/><path d="M227.07414,482.9274c0,-1.11664 0.90521,-2.02185 2.02185,-2.02185c1.11664,0 2.02185,0.90521 2.02185,2.02185c0,1.11664 -0.90521,2.02185 -2.02185,2.02185c-1.11664,0 -2.02185,-0.90521 -2.02185,-2.02185z"/><path d="M230.54016,485.23808c0,-1.11664 0.90521,-2.02185 2.02185,-2.02185c1.11664,0 2.02185,0.90521 2.02185,2.02185c0,1.11664 -0.90521,2.02185 -2.02185,2.02185c-1.11664,0 -2.02185,-0.90521 -2.02185,-2.02185z"/><path d="M252.49162,484.08274c0,-1.11664 0.90521,-2.02185 2.02185,-2.02185c1.11664,0 2.02185,0.90521 2.02185,2.02185c0,1.11664 -0.90521,2.02185 -2.02185,2.02185c-1.11664,0 -2.02185,-0.90521 -2.02185,-2.02185z"/><path d="M268.66639,478.30604c0,-1.11664 0.90521,-2.02185 2.02185,-2.02185c1.11664,0 2.02185,0.90521 2.02185,2.02185c0,1.11664 -0.90521,2.02185 -2.02185,2.02185c-1.11664,0 -2.02185,-0.90521 -2.02185,-2.02185z"/><path d="M289.46251,487.54876c0,-1.11664 0.90521,-2.02185 2.02185,-2.02185c1.11664,0 2.02185,0.90521 2.02185,2.02185c0,1.11664 -0.90521,2.02185 -2.02185,2.02185c-1.11664,0 -2.02185,-0.90521 -2.02185,-2.02185z"/><path d="M302.17125,475.99536c0,-1.11664 0.90521,-2.02185 2.02185,-2.02185c1.11664,0 2.02185,0.90521 2.02185,2.02185c0,1.11664 -0.90521,2.02185 -2.02185,2.02185c-1.11664,0 -2.02185,-0.90521 -2.02185,-2.02185z"/><path d="M333.36544,474.84002c0,-1.11664 0.90521,-2.02185 2.02185,-2.02185c1.11664,0 2.02185,0.90521 2.02185,2.02185c0,1.11664 -0.90521,2.02185 -2.02185,2.02185c-1.11664,0 -2.02185,-0.90521 -2.02185,-2.02185z"/><path d="M337.9868,466.75264c0,-1.11664 0.90521,-2.02185 2.02185,-2.02185c1.11664,0 2.02185,0.90521 2.02185,2.02185c0,1.11664 -0.90521,2.02185 -2.02185,2.02185c-1.11664,0 -2.02185,-0.90521 -2.02185,-2.02185z"/><path d="M377.26837,452.88855c0,-1.11664 0.90521,-2.02185 2.02185,-2.02185c1.11664,0 2.02185,0.90521 2.02185,2.02185c0,1.11664 -0.90521,2.02185 -2.02185,2.02185c-1.11664,0 -2.02185,-0.90521 -2.02185,-2.02185z"/><path d="M365.71496,458.66525c0,-1.11664 0.90521,-2.02185 2.02185,-2.02185c1.11664,0 2.02185,0.90521 2.02185,2.02185c0,1.11664 -0.90521,2.02185 -2.02185,2.02185c-1.11664,0 -2.02185,-0.90521 -2.02185,-2.02185z"/><path d="M400.37517,440.17981c0,-1.11664 0.90521,-2.02185 2.02185,-2.02185c1.11664,0 2.02185,0.90521 2.02185,2.02185c0,1.11664 -0.90521,2.02185 -2.02185,2.02185c-1.11664,0 -2.02185,-0.90521 -2.02185,-2.02185z"/><path d="M414.23925,445.95651c0,-1.11664 0.90521,-2.02185 2.02185,-2.02185c1.11664,0 2.02185,0.90521 2.02185,2.02185c0,1.11664 -0.90521,2.02185 -2.02185,2.02185c-1.11664,0 -2.02185,-0.90521 -2.02185,-2.02185z"/><path d="M422.32663,432.09243c0,-1.11664 0.90521,-2.02185 2.02185,-2.02185c1.11664,0 2.02185,0.90521 2.02185,2.02185c0,1.11664 -0.90521,2.02185 -2.02185,2.02185c-1.11664,0 -2.02185,-0.90521 -2.02185,-2.02185z"/><path d="M428.10334,414.76233c0,-1.11664 0.90521,-2.02185 2.02185,-2.02185c1.11664,0 2.02185,0.90521 2.02185,2.02185c0,1.11664 -0.90521,2.02185 -2.02185,2.02185c-1.11664,0 -2.02185,-0.90521 -2.02185,-2.02185z"/><path d="M455.8315,407.83028c0,-1.11664 0.90521,-2.02185 2.02185,-2.02185c1.11664,0 2.02185,0.90521 2.02185,2.02185c0,1.11664 -0.90521,2.02185 -2.02185,2.02185c-1.11664,0 -2.02185,-0.90521 -2.02185,-2.02185z"/><path d="M480.09365,372.01474c0,-1.11664 0.90521,-2.02185 2.02185,-2.02185c1.11664,0 2.02185,0.90521 2.02185,2.02185c0,1.11664 -0.90521,2.02185 -2.02185,2.02185c-1.11664,0 -2.02185,-0.90521 -2.02185,-2.02185z"/><path d="M488.18103,372.01474c0,-1.11664 0.90521,-2.02185 2.02185,-2.02185c1.11664,0 2.02185,0.90521 2.02185,2.02185c0,1.11664 -0.90521,2.02185 -2.02185,2.02185c-1.11664,0 -2.02185,-0.90521 -2.02185,-2.02185z"/><path d="M499.73443,351.21861c0,-1.11664 0.90521,-2.02185 2.02185,-2.02185c1.11664,0 2.02185,0.90521 2.02185,2.02185c0,1.11664 -0.90521,2.02185 -2.02185,2.02185c-1.11664,0 -2.02185,-0.90521 -2.02185,-2.02185z"/><path d="M526.01842,282.18704c2.02185,0 2.02185,2.02185 2.02185,2.02185v2.31068c0,0 0,2.02185 -2.02185,2.02185c-2.02185,0 -2.02185,-2.02185 -2.02185,-2.02185v-2.31068c0,0 0,-2.02185 2.02185,-2.02185z"/><path d="M544.7927,271.50014c0,-1.11664 0.90521,-2.02185 2.02185,-2.02185c1.11664,0 2.02185,0.90521 2.02185,2.02185c0,1.11664 -0.90521,2.02185 -2.02185,2.02185c-1.11664,0 -2.02185,-0.90521 -2.02185,-2.02185z"/><path d="M533.2393,254.17003c0,-1.11664 0.90521,-2.02185 2.02185,-2.02185c1.11664,0 2.02185,0.90521 2.02185,2.02185c0,1.11664 -0.90521,2.02185 -2.02185,2.02185c-1.11664,0 -2.02185,-0.90521 -2.02185,-2.02185z"/><path d="M550.5694,232.21857c0,-1.11664 0.90521,-2.02185 2.02185,-2.02185c1.11664,0 2.02185,0.90521 2.02185,2.02185c0,1.11664 -0.90521,2.02185 -2.02185,2.02185c-1.11664,0 -2.02185,-0.90521 -2.02185,-2.02185z"/><path d="M545.94804,220.66517c0,-1.11664 0.90521,-2.02185 2.02185,-2.02185c1.11664,0 2.02185,0.90521 2.02185,2.02185c0,1.11664 -0.90521,2.02185 -2.02185,2.02185c-1.11664,0 -2.02185,-0.90521 -2.02185,-2.02185z"/><path d="M551.72474,197.55836c0,-1.11664 0.90521,-2.02185 2.02185,-2.02185c1.11664,0 2.02185,0.90521 2.02185,2.02185c0,1.11664 -0.90521,2.02185 -2.02185,2.02185c-1.11664,0 -2.02185,-0.90521 -2.02185,-2.02185z"/><path d="M540.17134,181.3836c0,-1.11664 0.90521,-2.02185 2.02185,-2.02185c1.11664,0 2.02185,0.90521 2.02185,2.02185c0,1.11664 -0.90521,2.02185 -2.02185,2.02185c-1.11664,0 -2.02185,-0.90521 -2.02185,-2.02185z"/><path d="M547.96988,149.32291c2.02185,0 2.02185,2.02185 2.02185,2.02185c0,1.3479 0,3.27346 0,4.62136c0,0 0,2.02185 -2.02185,2.02185c-2.02185,0 -2.02185,-2.02185 -2.02185,-2.02185c0,-1.3479 0,-2.69579 0,-4.04369v-0.57767c0,0 0,-2.02185 2.02185,-2.02185z"/><path d="M547.10338,134.01465c0,-1.11664 0.90521,-2.02185 2.02185,-2.02185c1.11664,0 2.02185,0.90521 2.02185,2.02185c0,1.11664 -0.90521,2.02185 -2.02185,2.02185c-1.11664,0 -2.02185,-0.90521 -2.02185,-2.02185z"/><path d="M543.63736,116.68455c0,-1.11664 0.90521,-2.02185 2.02185,-2.02185c1.11664,0 2.02185,0.90521 2.02185,2.02185c0,1.11664 -0.90521,2.02185 -2.02185,2.02185c-1.11664,0 -2.02185,-0.90521 -2.02185,-2.02185z"/><path d="M535.54998,93.57774c0,-1.11664 0.90521,-2.02185 2.02185,-2.02185c1.11664,0 2.02185,0.90521 2.02185,2.02185c0,1.11664 -0.90521,2.02185 -2.02185,2.02185c-1.11664,0 -2.02185,-0.90521 -2.02185,-2.02185z"/><path d="M522.84123,70.47094c0,-1.11664 0.90521,-2.02185 2.02185,-2.02185c1.11664,0 2.02185,0.90521 2.02185,2.02185c0,1.11664 -0.90521,2.02185 -2.02185,2.02185c-1.11664,0 -2.02185,-0.90521 -2.02185,-2.02185z"/><path d="M510.13249,20.79131c0,-1.11664 0.90521,-2.02185 2.02185,-2.02185c1.11664,0 2.02185,0.90521 2.02185,2.02185c0,1.11664 -0.90521,2.02185 -2.02185,2.02185c-1.11664,0 -2.02185,-0.90521 -2.02185,-2.02185z"/><path d="M482.40433,3.46121c0,-1.11664 0.90521,-2.02185 2.02185,-2.02185c1.11664,0 2.02185,0.90521 2.02185,2.02185c0,1.11664 -0.90521,2.02185 -2.02185,2.02185c-1.11664,0 -2.02185,-0.90521 -2.02185,-2.02185z"/><path d="M498.57909,18.48063c0,-1.11664 0.90521,-2.02185 2.02185,-2.02185c1.11664,0 2.02185,0.90521 2.02185,2.02185c0,1.11664 -0.90521,2.02185 -2.02185,2.02185c-1.11664,0 -2.02185,-0.90521 -2.02185,-2.02185z"/><path d="M457.57902,-36.09468c1.42966,-1.42966 2.85932,0 2.85932,0l2.31068,2.31068c0,0 1.42966,1.42966 0,2.85932c-1.42966,1.42966 -2.85932,0 -2.85932,0l-2.31068,-2.31068c0,0 -1.42966,-1.42966 0,-2.85932z"/><path d="M431.56936,-48.5291c0,-1.11664 0.90521,-2.02185 2.02185,-2.02185c1.11664,0 2.02185,0.90521 2.02185,2.02185c0,1.11664 -0.90521,2.02185 -2.02185,2.02185c-1.11664,0 -2.02185,-0.90521 -2.02185,-2.02185z"/><path d="M424.63731,-48.5291c0,-1.11664 0.90521,-2.02185 2.02185,-2.02185c1.11664,0 2.02185,0.90521 2.02185,2.02185c0,1.11664 -0.90521,2.02185 -2.02185,2.02185c-1.11664,0 -2.02185,-0.90521 -2.02185,-2.02185z"/><path d="M406.15187,-62.39319c0,-1.11664 0.90521,-2.02185 2.02185,-2.02185c1.11664,0 2.02185,0.90521 2.02185,2.02185c0,1.11664 -0.90521,2.02185 -2.02185,2.02185c-1.11664,0 -2.02185,-0.90521 -2.02185,-2.02185z"/><path d="M401.53051,-75.10193c0,-1.11664 0.90521,-2.02185 2.02185,-2.02185c1.11664,0 2.02185,0.90521 2.02185,2.02185c0,1.11664 -0.90521,2.02185 -2.02185,2.02185c-1.11664,0 -2.02185,-0.90521 -2.02185,-2.02185z"/><path d="M387.66643,-78.56795c0,-1.11664 0.90521,-2.02185 2.02185,-2.02185c1.11664,0 2.02185,0.90521 2.02185,2.02185c0,1.11664 -0.90521,2.02185 -2.02185,2.02185c-1.11664,0 -2.02185,-0.90521 -2.02185,-2.02185z"/><path d="M377.26837,-76.25727c0,-1.11664 0.90521,-2.02185 2.02185,-2.02185c1.11664,0 2.02185,0.90521 2.02185,2.02185c0,1.11664 -0.90521,2.02185 -2.02185,2.02185c-1.11664,0 -2.02185,-0.90521 -2.02185,-2.02185z"/><path d="M357.62758,-87.81067c0,-1.11664 0.90521,-2.02185 2.02185,-2.02185c1.11664,0 2.02185,0.90521 2.02185,2.02185c0,1.11664 -0.90521,2.02185 -2.02185,2.02185c-1.11664,0 -2.02185,-0.90521 -2.02185,-2.02185z"/><path d="M350.69554,-97.05339c0,-1.11664 0.90521,-2.02185 2.02185,-2.02185c1.11664,0 2.02185,0.90521 2.02185,2.02185c0,1.11664 -0.90521,2.02185 -2.02185,2.02185c-1.11664,0 -2.02185,-0.90521 -2.02185,-2.02185z"/><path d="M452.36548,-27.73298c0,-1.11664 0.90521,-2.02185 2.02185,-2.02185c1.11664,0 2.02185,0.90521 2.02185,2.02185c0,1.11664 -0.90521,2.02185 -2.02185,2.02185c-1.11664,0 -2.02185,-0.90521 -2.02185,-2.02185z"/><path d="M473.1616,-33.50968c0,-1.11664 0.90521,-2.02185 2.02185,-2.02185c1.11664,0 2.02185,0.90521 2.02185,2.02185c0,1.11664 -0.90521,2.02185 -2.02185,2.02185c-1.11664,0 -2.02185,-0.90521 -2.02185,-2.02185z"/><path d="M519.37521,299.2283c0,-1.11664 0.90521,-2.02185 2.02185,-2.02185c1.11664,0 2.02185,0.90521 2.02185,2.02185c0,1.11664 -0.90521,2.02185 -2.02185,2.02185c-1.11664,0 -2.02185,-0.90521 -2.02185,-2.02185z"/><path d="M511.28783,323.49045c0,-1.11664 0.90521,-2.02185 2.02185,-2.02185c1.11664,0 2.02185,0.90521 2.02185,2.02185c0,1.11664 -0.90521,2.02185 -2.02185,2.02185c-1.11664,0 -2.02185,-0.90521 -2.02185,-2.02185z"/><path d="M522.84123,317.71375c0,-1.11664 0.90521,-2.02185 2.02185,-2.02185c1.11664,0 2.02185,0.90521 2.02185,2.02185c0,1.11664 -0.90521,2.02185 -2.02185,2.02185c-1.11664,0 -2.02185,-0.90521 -2.02185,-2.02185z"/><path d="M493.95773,359.30599c0,-1.11664 0.90521,-2.02185 2.02185,-2.02185c1.11664,0 2.02185,0.90521 2.02185,2.02185c0,1.11664 -0.90521,2.02185 -2.02185,2.02185c-1.11664,0 -2.02185,-0.90521 -2.02185,-2.02185z"/><path d="M454.67616,398.58756c0,-1.11664 0.90521,-2.02185 2.02185,-2.02185c1.11664,0 2.02185,0.90521 2.02185,2.02185c0,1.11664 -0.90521,2.02185 -2.02185,2.02185c-1.11664,0 -2.02185,-0.90521 -2.02185,-2.02185z"/><path d="M443.12276,418.22835c0,-1.11664 0.90521,-2.02185 2.02185,-2.02185c1.11664,0 2.02185,0.90521 2.02185,2.02185c0,1.11664 -0.90521,2.02185 -2.02185,2.02185c-1.11664,0 -2.02185,-0.90521 -2.02185,-2.02185z"/><path d="M335.67612,-99.36407c0,-1.11664 0.90521,-2.02185 2.02185,-2.02185c1.11664,0 2.02185,0.90521 2.02185,2.02185c0,1.11664 -0.90521,2.02185 -2.02185,2.02185c-1.11664,0 -2.02185,-0.90521 -2.02185,-2.02185z"/><path d="M304.48193,-112.07281c0,-1.11664 0.90521,-2.02185 2.02185,-2.02185c1.11664,0 2.02185,0.90521 2.02185,2.02185c0,1.11664 -0.90521,2.02185 -2.02185,2.02185c-1.11664,0 -2.02185,-0.90521 -2.02185,-2.02185z"/><path d="M295.23921,-98.20873c0,-1.11664 0.90521,-2.02185 2.02185,-2.02185c1.11664,0 2.02185,0.90521 2.02185,2.02185c0,1.11664 -0.90521,2.02185 -2.02185,2.02185c-1.11664,0 -2.02185,-0.90521 -2.02185,-2.02185z"/><path d="M279.06445,-110.91747c0,-1.11664 0.90521,-2.02185 2.02185,-2.02185c1.11664,0 2.02185,0.90521 2.02185,2.02185c0,1.11664 -0.90521,2.02185 -2.02185,2.02185c-1.11664,0 -2.02185,-0.90521 -2.02185,-2.02185z"/><path d="M267.51104,-109.76213c0,-1.11664 0.90521,-2.02185 2.02185,-2.02185c1.11664,0 2.02185,0.90521 2.02185,2.02185c0,1.11664 -0.90521,2.02185 -2.02185,2.02185c-1.11664,0 -2.02185,-0.90521 -2.02185,-2.02185z"/><path d="M252.49162,-102.83009c0,-1.11664 0.90521,-2.02185 2.02185,-2.02185c1.11664,0 2.02185,0.90521 2.02185,2.02185c0,1.11664 -0.90521,2.02185 -2.02185,2.02185c-1.11664,0 -2.02185,-0.90521 -2.02185,-2.02185z"/><path d="M245.55958,-110.91747c0,-1.11664 0.90521,-2.02185 2.02185,-2.02185c1.11664,0 2.02185,0.90521 2.02185,2.02185c0,1.11664 -0.90521,2.02185 -2.02185,2.02185c-1.11664,0 -2.02185,-0.90521 -2.02185,-2.02185z"/><path d="M230.54016,-98.20873c0,-1.11664 0.90521,-2.02185 2.02185,-2.02185c1.11664,0 2.02185,0.90521 2.02185,2.02185c0,1.11664 -0.90521,2.02185 -2.02185,2.02185c-1.11664,0 -2.02185,-0.90521 -2.02185,-2.02185z"/><path d="M207.43335,-113.22815c0,-1.11664 0.90521,-2.02185 2.02185,-2.02185c1.11664,0 2.02185,0.90521 2.02185,2.02185c0,1.11664 -0.90521,2.02185 -2.02185,2.02185c-1.11664,0 -2.02185,-0.90521 -2.02185,-2.02185z"/><path d="M191.25859,-101.67475c0,-1.11664 0.90521,-2.02185 2.02185,-2.02185c1.11664,0 2.02185,0.90521 2.02185,2.02185c0,1.11664 -0.90521,2.02185 -2.02185,2.02185c-1.11664,0 -2.02185,-0.90521 -2.02185,-2.02185z"/><path d="M186.63723,-105.14077c0,-1.11664 0.90521,-2.02185 2.02185,-2.02185c1.11664,0 2.02185,0.90521 2.02185,2.02185c0,1.11664 -0.90521,2.02185 -2.02185,2.02185c-1.11664,0 -2.02185,-0.90521 -2.02185,-2.02185z"/><path d="M231.6955,-113.22815c0,-1.11664 0.90521,-2.02185 2.02185,-2.02185c1.11664,0 2.02185,0.90521 2.02185,2.02185c0,1.11664 -0.90521,2.02185 -2.02185,2.02185c-1.11664,0 -2.02185,-0.90521 -2.02185,-2.02185z"/><path d="M160.0644,-92.43203c0,-1.11664 0.90521,-2.02185 2.02185,-2.02185c1.11664,0 2.02185,0.90521 2.02185,2.02185c0,1.11664 -0.90521,2.02185 -2.02185,2.02185c-1.11664,0 -2.02185,-0.90521 -2.02185,-2.02185z"/><path d="M125.4042,-86.65533c0,-1.11664 0.90521,-2.02185 2.02185,-2.02185c1.11664,0 2.02185,0.90521 2.02185,2.02185c0,1.11664 -0.90521,2.02185 -2.02185,2.02185c-1.11664,0 -2.02185,-0.90521 -2.02185,-2.02185z"/><path d="M99.98671,-82.03397c0,-1.11664 0.90521,-2.02185 2.02185,-2.02185c1.11664,0 2.02185,0.90521 2.02185,2.02185c0,1.11664 -0.90521,2.02185 -2.02185,2.02185c-1.11664,0 -2.02185,-0.90521 -2.02185,-2.02185z"/><path d="M130.02556,-97.05339c0,-1.11664 0.90521,-2.02185 2.02185,-2.02185c1.11664,0 2.02185,0.90521 2.02185,2.02185c0,1.11664 -0.90521,2.02185 -2.02185,2.02185c-1.11664,0 -2.02185,-0.90521 -2.02185,-2.02185z"/><path d="M59.54981,-61.23784c0,-1.11664 0.90521,-2.02185 2.02185,-2.02185c1.11664,0 2.02185,0.90521 2.02185,2.02185c0,1.11664 -0.90521,2.02185 -2.02185,2.02185c-1.11664,0 -2.02185,-0.90521 -2.02185,-2.02185z"/><path d="M79.19059,-71.63591c0,-1.11664 0.90521,-2.02185 2.02185,-2.02185c1.11664,0 2.02185,0.90521 2.02185,2.02185c0,1.11664 -0.90521,2.02185 -2.02185,2.02185c-1.11664,0 -2.02185,-0.90521 -2.02185,-2.02185z"/><path d="M96.52069,-75.10193c0,-1.11664 0.90521,-2.02185 2.02185,-2.02185c1.11664,0 2.02185,0.90521 2.02185,2.02185c0,1.11664 -0.90521,2.02185 -2.02185,2.02185c-1.11664,0 -2.02185,-0.90521 -2.02185,-2.02185z"/><path d="M69.94787,-54.3058c0,-1.11664 0.90521,-2.02185 2.02185,-2.02185c1.11664,0 2.02185,0.90521 2.02185,2.02185c0,1.11664 -0.90521,2.02185 -2.02185,2.02185c-1.11664,0 -2.02185,-0.90521 -2.02185,-2.02185z"/><path d="M42.2197,-60.0825c0,-1.11664 0.90521,-2.02185 2.02185,-2.02185c1.11664,0 2.02185,0.90521 2.02185,2.02185c0,1.11664 -0.90521,2.02185 -2.02185,2.02185c-1.11664,0 -2.02185,-0.90521 -2.02185,-2.02185z"/><path d="M43.37504,-48.5291c0,-1.11664 0.90521,-2.02185 2.02185,-2.02185c1.11664,0 2.02185,0.90521 2.02185,2.02185c0,1.11664 -0.90521,2.02185 -2.02185,2.02185c-1.11664,0 -2.02185,-0.90521 -2.02185,-2.02185z"/><path d="M54.92844,-50.83978c0,-1.11664 0.90521,-2.02185 2.02185,-2.02185c1.11664,0 2.02185,0.90521 2.02185,2.02185c0,1.11664 -0.90521,2.02185 -2.02185,2.02185c-1.11664,0 -2.02185,-0.90521 -2.02185,-2.02185z"/><path d="M27.20028,-39.28638c0,-1.11664 0.90521,-2.02185 2.02185,-2.02185c1.11664,0 2.02185,0.90521 2.02185,2.02185c0,1.11664 -0.90521,2.02185 -2.02185,2.02185c-1.11664,0 -2.02185,-0.90521 -2.02185,-2.02185z"/><path d="M37.59834,-32.35434c0,-1.11664 0.90521,-2.02185 2.02185,-2.02185c1.11664,0 2.02185,0.90521 2.02185,2.02185c0,1.11664 -0.90521,2.02185 -2.02185,2.02185c-1.11664,0 -2.02185,-0.90521 -2.02185,-2.02185z"/><path d="M24.8896,-21.95628c0,-1.11664 0.90521,-2.02185 2.02185,-2.02185c1.11664,0 2.02185,0.90521 2.02185,2.02185c0,1.11664 -0.90521,2.02185 -2.02185,2.02185c-1.11664,0 -2.02185,-0.90521 -2.02185,-2.02185z"/><path d="M13.3362,-26.57764c0,-1.11664 0.90521,-2.02185 2.02185,-2.02185c1.11664,0 2.02185,0.90521 2.02185,2.02185c0,1.11664 -0.90521,2.02185 -2.02185,2.02185c-1.11664,0 -2.02185,-0.90521 -2.02185,-2.02185z"/><path d="M5.24882,-13.8689c0,-1.11664 0.90521,-2.02185 2.02185,-2.02185c1.11664,0 2.02185,0.90521 2.02185,2.02185c0,1.11664 -0.90521,2.02185 -2.02185,2.02185c-1.11664,0 -2.02185,-0.90521 -2.02185,-2.02185z"/><path d="M508.97715,42.74277c0,-1.11664 0.90521,-2.02185 2.02185,-2.02185c1.11664,0 2.02185,0.90521 2.02185,2.02185c0,1.11664 -0.90521,2.02185 -2.02185,2.02185c-1.11664,0 -2.02185,-0.90521 -2.02185,-2.02185z"/><path d="M519.37521,55.45152c0,-1.11664 0.90521,-2.02185 2.02185,-2.02185c1.11664,0 2.02185,0.90521 2.02185,2.02185c0,1.11664 -0.90521,2.02185 -2.02185,2.02185c-1.11664,0 -2.02185,-0.90521 -2.02185,-2.02185z"/><path d="M-74.46966,189.47098c0,-1.11664 0.90521,-2.02185 2.02185,-2.02185c1.11664,0 2.02185,0.90521 2.02185,2.02185c0,1.11664 -0.90521,2.02185 -2.02185,2.02185c-1.11664,0 -2.02185,-0.90521 -2.02185,-2.02185z"/><path d="M708.85101,56.60686c0,-1.11664 0.90521,-2.02185 2.02185,-2.02185c1.11664,0 2.02185,0.90521 2.02185,2.02185c0,1.11664 -0.90521,2.02185 -2.02185,2.02185c-1.11664,0 -2.02185,-0.90521 -2.02185,-2.02185z"/></g></g></svg>