<svg version="1.1" xmlns="http://www.w3.org/2000/svg" xmlns:xlink="http://www.w3.org/1999/xlink" width="42.92378" height="108.52455" viewBox="0,0,42.92378,108.52455"><g transform="translate(-51.08947,-41.25532)"><g data-paper-data="{&quot;isPaintingLayer&quot;:true}" fill-rule="nonzero" stroke-linejoin="miter" stroke-miterlimit="10" stroke-dasharray="" stroke-dashoffset="0" style="mix-blend-mode: normal"><path d="M69.96734,126.766v-53.82338" fill="#fdff9f" stroke="#fdffa1" stroke-width="5" stroke-linecap="round"/><path d="M68.71739,123.70055l-12.18524,23.57932" fill="#fdff9f" stroke="#fdffa1" stroke-width="5" stroke-linecap="round"/><path d="M83.98399,145.409l-12.04654,-21.07369" data-paper-data="{&quot;index&quot;:null}" fill="#fdff9f" stroke="#fdffa1" stroke-width="5" stroke-linecap="round"/><path d="M81.61584,66.28647c0,8.23743 -4.53818,12.43754 -11.23865,12.43754c-6.70047,0 -13.02591,-4.20011 -13.02591,-12.43754c0,-8.23743 5.43181,-14.91519 12.13228,-14.91519c6.70047,0 12.13228,6.67776 12.13228,14.91519z" fill="#fdff9f" stroke="#fdffa1" stroke-width="0" stroke-linecap="butt"/><g fill="#ff0000" stroke="none" stroke-linecap="butt"><path d="M83.88124,53.52705c0,3.2312 2.02359,6.62731 -0.66447,7.79463c-2.95019,1.28116 -9.25345,-1.4008 -13.92332,-1.4008c-3.43289,0 -9.07147,2.22033 -12.97034,2.86032c-1.93536,0.31768 -3.04716,-0.14892 -4.02904,-0.68848c-2.18259,-1.19938 -0.73248,-5.68915 -0.73248,-8.56567c0,-6.77749 7.235,-12.27173 16.15982,-12.27173c8.92482,0 16.15982,5.49424 16.15982,12.27173z" stroke-width="NaN"/><path d="M94.01324,56.6711c0,2.83985 -4.63078,4.40545 -8.99832,4.49533c-1.24506,0.02562 -2.46874,-1.03153 -3.55764,-1.03153c-4.90865,0 -8.8879,-2.95844 -8.8879,-6.60785c0,-3.64941 3.97925,-6.60785 8.8879,-6.60785c4.90865,0 12.55597,6.10249 12.55597,9.75191z" stroke-width="0"/></g></g></g></svg>