<svg version="1.1" xmlns="http://www.w3.org/2000/svg" xmlns:xlink="http://www.w3.org/1999/xlink" width="167.00556" height="173.76301" viewBox="0,0,167.00556,173.76301"><g transform="translate(-71.5,-66)"><g data-paper-data="{&quot;isPaintingLayer&quot;:true}" fill-rule="nonzero" stroke-linecap="butt" stroke-linejoin="miter" stroke-miterlimit="10" stroke-dasharray="" stroke-dashoffset="0" style="mix-blend-mode: normal"><g><path d="M238.50556,152.8815c0,47.98333 -37.38547,86.8815 -83.50278,86.8815c-46.11731,0 -83.50278,-38.89817 -83.50278,-86.8815c0,-47.98333 37.38547,-86.8815 83.50278,-86.8815c46.11731,0 83.50278,38.89817 83.50278,86.8815z" fill="#da2020" stroke="none" stroke-width="0"/><path d="M213.40645,152.25403c0,34.30808 -26.14822,62.12027 -58.40368,62.12027c-32.25546,0 -58.40368,-27.81219 -58.40368,-62.12027c0,-34.30808 26.14822,-62.12027 58.40368,-62.12027c32.25546,0 58.40368,27.81219 58.40368,62.12027z" fill="none" stroke="#ffffff" stroke-width="15"/><path d="M185.4113,153.75909c0,17.01227 -12.96606,30.80344 -28.9605,30.80344c-15.99444,0 -28.9605,-13.79117 -28.9605,-30.80344c0,-17.01227 12.96606,-30.80344 28.9605,-30.80344c15.99444,0 28.9605,13.79117 28.9605,30.80344z" fill="none" stroke="#ffffff" stroke-width="15"/><path d="M165.93724,154.11955c0,5.22028 -4.42415,9.45216 -9.88161,9.45216c-5.45746,0 -9.88161,-4.23188 -9.88161,-9.45216c0,-5.22028 4.42415,-9.45216 9.88161,-9.45216c5.45746,0 9.88161,4.23188 9.88161,9.45216z" fill="#ffffff" stroke="none" stroke-width="0"/></g></g></g></svg>