<svg version="1.1" xmlns="http://www.w3.org/2000/svg" xmlns:xlink="http://www.w3.org/1999/xlink" width="488.96396" height="366.36637" viewBox="0,0,488.96396,366.36637"><defs><linearGradient x1="240" y1="-3.18309" x2="240" y2="363.18329" gradientUnits="userSpaceOnUse" id="color-1"><stop offset="0" stop-color="#d4fffb"/><stop offset="1" stop-color="#3de5ff"/></linearGradient></defs><g transform="translate(2.60473,3.18309)"><g data-paper-data="{&quot;isPaintingLayer&quot;:true}" fill-rule="nonzero" stroke-linejoin="miter" stroke-miterlimit="10" stroke-dasharray="" stroke-dashoffset="0" style="mix-blend-mode: normal"><path d="M-1.74174,363.18329v-366.36637h483.48348v366.36637z" fill="url(#color-1)" stroke="none" stroke-width="NaN" stroke-linecap="butt"/><path d="M207.18396,235.03621c-1.6212,9.2824 -10.16768,15.54413 -19.08909,13.98598c-8.92141,-1.55815 -14.83941,-10.34616 -13.21821,-19.62855c1.6212,-9.2824 10.16768,-15.54413 19.08909,-13.98598c8.92141,1.55815 14.83941,10.34616 13.21821,19.62855z" fill="#da2020" stroke="none" stroke-width="0" stroke-linecap="butt"/><path d="M203.14583,234.14137c-1.24084,7.10459 -7.66157,11.91828 -14.3411,10.75168c-6.67953,-1.1666 -11.08845,-7.87172 -9.84761,-14.97632c1.24084,-7.10459 7.66156,-11.91828 14.34109,-10.75167c6.67953,1.1666 11.08846,7.87172 9.84762,14.97631z" fill="none" stroke="#ffffff" stroke-width="2.5" stroke-linecap="butt"/><path d="M197.73722,233.11281c-0.62012,3.55059 -4.04917,5.91782 -7.65899,5.28735c-3.60982,-0.63047 -6.03345,-4.01988 -5.41333,-7.57048c0.62012,-3.55059 4.04917,-5.91782 7.65899,-5.28735c3.60982,0.63047 6.03345,4.01988 5.41333,7.57048z" fill="none" stroke="#ffffff" stroke-width="2.5" stroke-linecap="butt"/><path d="M193.10375,232.82386c-0.17638,1.00986 -1.17521,1.67905 -2.23096,1.49466c-1.05575,-0.18439 -1.76862,-1.15253 -1.59225,-2.16239c0.17638,-1.00986 1.17521,-1.67905 2.23096,-1.49466c1.05575,0.18439 1.76862,1.15253 1.59225,2.16239z" fill="#ffffff" stroke="none" stroke-width="2.5" stroke-linecap="butt"/><g><path d="M104.18808,275.59569l-27.40471,-0.65734" fill="none" stroke="#fdff9d" stroke-width="5" stroke-linecap="round"/><path d="M76.66235,287.12493l28.47522,-9.14215" fill="none" stroke="#fdff9d" stroke-width="5" stroke-linecap="round"/><path d="M102.81315,281.99397v-12.32754h5.21718v12.32754z" fill="#000000" stroke="#000000" stroke-width="0" stroke-linecap="butt"/><path d="M98.90026,269.53335v-6.52145h20.43395v6.52145z" fill="#000000" stroke="#000000" stroke-width="0" stroke-linecap="butt"/></g><path d="M75.76914,309.4477v-53.82338" fill="#fdff9f" stroke="#fdffa1" stroke-width="5" stroke-linecap="round"/><path d="M74.51919,306.38227l-12.18524,23.57932" fill="#fdff9f" stroke="#fdffa1" stroke-width="5" stroke-linecap="round"/><path d="M77.73925,307.01704l12.04654,21.07369" data-paper-data="{&quot;index&quot;:null}" fill="#fdff9f" stroke="#fdffa1" stroke-width="5" stroke-linecap="round"/><path d="M87.41764,248.96819c0,8.23743 -4.53818,12.43754 -11.23865,12.43754c-6.70047,0 -13.02591,-4.20011 -13.02591,-12.43754c0,-8.23743 5.43181,-14.91519 12.13228,-14.91519c6.70047,0 12.13228,6.67776 12.13228,14.91519z" fill="#fdff9f" stroke="#fdffa1" stroke-width="0" stroke-linecap="butt"/><path d="M89.68304,236.20878c0,3.2312 2.02359,6.62731 -0.66447,7.79463c-2.95019,1.28116 -9.25345,-1.4008 -13.92332,-1.4008c-3.43289,0 -9.07147,2.22033 -12.97034,2.86032c-1.93536,0.31768 -3.04716,-0.14892 -4.02904,-0.68848c-2.18259,-1.19938 -0.73248,-5.68915 -0.73248,-8.56567c0,-6.77749 7.235,-12.27173 16.15982,-12.27173c8.92482,0 16.15982,5.49424 16.15982,12.27173z" fill="#ff0000" stroke="none" stroke-width="NaN" stroke-linecap="butt"/><path d="M99.81504,239.35283c0,2.83985 -4.63078,4.40545 -8.99832,4.49533c-1.24506,0.02562 -2.46874,-1.03153 -3.55764,-1.03153c-4.90865,0 -8.8879,-2.95844 -8.8879,-6.60785c0,-3.64941 3.97925,-6.60785 8.8879,-6.60785c4.90865,0 12.55597,6.10249 12.55597,9.75191z" fill="#ff0000" stroke="none" stroke-width="0" stroke-linecap="butt"/><path d="M410.16756,306.43872v-53.82338" fill="#fdff9f" stroke="#fdffa1" stroke-width="5" stroke-linecap="round"/><path d="M411.41751,303.37327l12.18524,23.57932" fill="#fdff9f" stroke="#fdffa1" stroke-width="5" stroke-linecap="round"/><path d="M396.15091,325.08171l12.04654,-21.07369" data-paper-data="{&quot;index&quot;:null}" fill="#fdff9f" stroke="#fdffa1" stroke-width="5" stroke-linecap="round"/><path d="M410.65134,231.04403c6.70047,0 12.13228,6.67776 12.13228,14.91519c0,8.23743 -6.32544,12.43754 -13.02591,12.43754c-6.70047,0 -11.23865,-4.20011 -11.23865,-12.43754c0,-8.23743 5.43181,-14.91519 12.13228,-14.91519z" fill="#fdff9f" stroke="#fdffa1" stroke-width="0" stroke-linecap="butt"/><path d="M412.15327,276.10929c-0.39253,-1.90123 -0.26717,-3.92671 -0.05917,-5.93953c-0.25026,-2.55831 -0.51284,-5.12125 -0.51284,-7.72608c0,0 0,-0.8364 0.48378,-1.54163c-0.08479,-0.76472 -0.1062,-1.5254 0.03912,-2.27789c0.89212,-4.61962 5.60756,-8.20662 6.21748,-12.87837l0.51966,-2.11145c0,0 0.60634,-2.42536 3.0317,-1.81902c0.42652,0.10663 0.75929,0.26952 1.01808,0.46558c0.42009,-0.12995 0.93568,-0.14144 1.56128,0.06709c0.0746,0.02487 0.14608,0.05131 0.21455,0.07918c0.23451,-0.72392 0.83097,-1.64455 2.34807,-1.64455c2.5,0 2.5,2.5 2.5,2.5c0,9.42085 0.00663,18.84172 0,28.26257c-0.00225,3.20599 0.49111,9.80683 -2.4753,12.08766c-1.80155,1.38519 -8.24378,0.47189 -10.56328,0.47189h-2.39513c0,0 -2.5,0 -2.5,-2.5c0,-1.05376 0.44416,-1.66335 0.95805,-2.016v-2.0533l-0.30022,-0.75055z" fill="#824b17" stroke="none" stroke-width="0.5" stroke-linecap="butt"/><g><path d="M407.15634,266.41887l-27.40471,0.65734" fill="none" stroke="#fdff9d" stroke-width="5" stroke-linecap="round"/><path d="M407.27736,278.60543l-28.47522,-9.14215" fill="none" stroke="#fdff9d" stroke-width="5" stroke-linecap="round"/><path d="M375.90938,273.47445v-12.32754h5.21718v12.32754z" fill="#000000" stroke="#000000" stroke-width="0" stroke-linecap="butt"/><path d="M364.6055,261.01382v-6.52145h20.43395v6.52145z" fill="#000000" stroke="#000000" stroke-width="0" stroke-linecap="butt"/></g><path d="M396.25367,233.1998c0,-6.77749 7.235,-12.27173 16.15982,-12.27173c8.92482,0 16.15982,5.49424 16.15982,12.27173c0,2.87652 1.45011,7.36629 -0.73248,8.56567c-0.98188,0.53956 -2.09368,1.00616 -4.02904,0.68848c-3.89887,-0.63999 -9.53745,-2.86032 -12.97034,-2.86032c-4.66987,0 -10.97313,2.68196 -13.92332,1.4008c-2.68806,-1.16732 -0.66447,-4.56343 -0.66447,-7.79463z" fill="#ff0000" stroke="none" stroke-width="NaN" stroke-linecap="butt"/><path d="M386.12165,236.34385c0,-3.64942 7.64732,-9.75191 12.55597,-9.75191c4.90865,0 8.8879,2.95844 8.8879,6.60785c0,3.64941 -3.97925,6.60785 -8.8879,6.60785c-1.0889,0 -2.31258,1.05715 -3.55764,1.03153c-4.36754,-0.08988 -8.99832,-1.65548 -8.99832,-4.49533z" fill="#ff0000" stroke="none" stroke-width="0" stroke-linecap="butt"/><path d="M-2.60473,360.19898v-10.11311h488.96396v10.11311z" fill="#8a3500" stroke="none" stroke-width="5" stroke-linecap="butt"/><path d="M-2.60473,350.56745v-10.11311h488.96396v10.11311z" fill="#178a00" stroke="none" stroke-width="5" stroke-linecap="butt"/><path d="M-2.60473,341.1767v-10.11311h488.96396v10.11311z" fill="#21c500" stroke="none" stroke-width="5" stroke-linecap="butt"/><path d="M-2.60473,331.06354v-10.11311h488.96396v10.11311z" fill="#27eb00" stroke="none" stroke-width="5" stroke-linecap="butt"/><path d="M320.78756,263.05422c-1.6212,9.2824 -10.16768,15.54413 -19.08909,13.98598c-8.92141,-1.55815 -14.83941,-10.34616 -13.21821,-19.62855c1.6212,-9.2824 10.16768,-15.54413 19.08909,-13.98598c8.92141,1.55815 14.83941,10.34616 13.21821,19.62855z" fill="#da2020" stroke="none" stroke-width="0" stroke-linecap="butt"/><path d="M316.74943,262.15936c-1.24084,7.10459 -7.66157,11.91828 -14.3411,10.75168c-6.67953,-1.1666 -11.08845,-7.87172 -9.84761,-14.97632c1.24084,-7.10459 7.66156,-11.91828 14.34109,-10.75167c6.67953,1.1666 11.08846,7.87172 9.84762,14.97631z" fill="none" stroke="#ffffff" stroke-width="2.5" stroke-linecap="butt"/><path d="M311.34082,261.13083c-0.62012,3.55059 -4.04917,5.91782 -7.65899,5.28735c-3.60982,-0.63047 -6.03345,-4.01988 -5.41333,-7.57048c0.62012,-3.55059 4.04917,-5.91782 7.65899,-5.28735c3.60982,0.63047 6.03345,4.01988 5.41333,7.57048z" fill="none" stroke="#ffffff" stroke-width="2.5" stroke-linecap="butt"/><path d="M306.70735,260.84188c-0.17638,1.00986 -1.17521,1.67905 -2.23096,1.49466c-1.05575,-0.18439 -1.76862,-1.15253 -1.59225,-2.16239c0.17638,-1.00986 1.17521,-1.67905 2.23096,-1.49466c1.05575,0.18439 1.76862,1.15253 1.59225,2.16239z" fill="#ffffff" stroke="none" stroke-width="2.5" stroke-linecap="butt"/><path d="M256.71849,111.89806c-1.6212,9.2824 -10.16768,15.54413 -19.08909,13.98598c-8.92141,-1.55815 -14.83941,-10.34616 -13.21821,-19.62855c1.6212,-9.2824 10.16768,-15.54413 19.08909,-13.98598c8.92141,1.55815 14.83941,10.34616 13.21821,19.62855z" fill="#da2020" stroke="none" stroke-width="0" stroke-linecap="butt"/><path d="M252.68036,111.00323c-1.24084,7.10459 -7.66157,11.91828 -14.3411,10.75168c-6.67953,-1.1666 -11.08845,-7.87172 -9.84761,-14.97632c1.24084,-7.10459 7.66156,-11.91828 14.34109,-10.75167c6.67953,1.1666 11.08846,7.87172 9.84762,14.97631z" fill="none" stroke="#ffffff" stroke-width="2.5" stroke-linecap="butt"/><path d="M247.27175,109.97467c-0.62012,3.55059 -4.04917,5.91782 -7.65899,5.28735c-3.60982,-0.63047 -6.03345,-4.01988 -5.41333,-7.57048c0.62012,-3.55059 4.04917,-5.91782 7.65899,-5.28735c3.60982,0.63047 6.03345,4.01988 5.41333,7.57048z" fill="none" stroke="#ffffff" stroke-width="2.5" stroke-linecap="butt"/><path d="M242.63828,109.68572c-0.17638,1.00986 -1.17521,1.67905 -2.23096,1.49466c-1.05575,-0.18439 -1.76862,-1.15253 -1.59225,-2.16239c0.17638,-1.00986 1.17521,-1.67905 2.23096,-1.49466c1.05575,0.18439 1.76862,1.15253 1.59225,2.16239z" fill="#ffffff" stroke="none" stroke-width="2.5" stroke-linecap="butt"/><text transform="translate(78.58859,187.2096) scale(1.00569,1.00569)" font-size="40" xml:space="preserve" fill="#000000" fill-rule="nonzero" stroke="none" stroke-width="1" stroke-linecap="butt" stroke-linejoin="miter" stroke-miterlimit="10" stroke-dasharray="" stroke-dashoffset="0" font-family="Handwriting" font-weight="normal" text-anchor="start" style="mix-blend-mode: normal"><tspan x="0" dy="0">SHOOTING GAME</tspan></text><path d="M39.01579,26.32746c-1.6212,9.2824 -10.16768,15.54413 -19.08909,13.98598c-8.92141,-1.55815 -14.83941,-10.34616 -13.21821,-19.62855c1.6212,-9.2824 10.16768,-15.54413 19.08909,-13.98598c8.92141,1.55815 14.83941,10.34616 13.21821,19.62855z" fill="#da2020" stroke="none" stroke-width="0" stroke-linecap="butt"/><path d="M34.97766,25.43263c-1.24084,7.10459 -7.66157,11.91828 -14.3411,10.75168c-6.67953,-1.1666 -11.08845,-7.87172 -9.84761,-14.97632c1.24084,-7.10459 7.66156,-11.91828 14.34109,-10.75167c6.67953,1.1666 11.08846,7.87172 9.84762,14.97631z" fill="none" stroke="#ffffff" stroke-width="2.5" stroke-linecap="butt"/><path d="M29.56905,24.40407c-0.62012,3.55059 -4.04917,5.91782 -7.65899,5.28735c-3.60982,-0.63047 -6.03345,-4.01988 -5.41333,-7.57048c0.62012,-3.55059 4.04917,-5.91782 7.65899,-5.28735c3.60982,0.63047 6.03345,4.01988 5.41333,7.57048z" fill="none" stroke="#ffffff" stroke-width="2.5" stroke-linecap="butt"/><path d="M24.93558,24.11512c-0.17638,1.00986 -1.17521,1.67905 -2.23096,1.49466c-1.05575,-0.18439 -1.76862,-1.15253 -1.59225,-2.16239c0.17638,-1.00986 1.17521,-1.67905 2.23096,-1.49466c1.05575,0.18439 1.76862,1.15253 1.59225,2.16239z" fill="#ffffff" stroke="none" stroke-width="2.5" stroke-linecap="butt"/><path d="M51.56156,194.90125h391.8919" fill="none" stroke="#000000" stroke-width="2.5" stroke-linecap="round"/><text transform="translate(175.46267,87.45847) rotate(-7.38303) scale(0.44455,0.453) skewX(0.00033)" font-size="40" xml:space="preserve" fill="#000000" fill-rule="nonzero" stroke="none" stroke-width="1" stroke-linecap="butt" stroke-linejoin="miter" stroke-miterlimit="10" stroke-dasharray="" stroke-dashoffset="0" font-family="Handwriting" font-weight="normal" text-anchor="start" style="mix-blend-mode: normal"><tspan x="0" dy="0">Shoot on the Target</tspan></text><g fill="#f3fffb" stroke="none" stroke-width="0" stroke-linecap="butt"><path d="M137.55835,108.34154c1.07983,11.9785 -9.77955,22.68467 -24.2551,23.91292c-14.47555,1.22824 -27.08568,-7.48656 -28.16551,-19.46505c-1.07983,-11.9785 9.77954,-22.68467 24.25509,-23.91291c14.47555,-1.22824 27.08569,7.48655 28.16552,19.46505z"/><path d="M82.84827,92.90733c1.07983,11.97849 -7.70871,22.50896 -19.62975,23.52045c-11.92104,1.01149 -22.46034,-7.87901 -23.54017,-19.85751c-1.07983,-11.97849 7.70871,-22.50896 19.62975,-23.52045c11.92104,-1.01149 22.46034,7.87901 23.54017,19.85751z"/><path d="M109.53555,73.05351c1.07983,11.9785 -8.39899,22.56753 -21.17154,23.65128c-12.77254,1.08374 -24.00212,-7.7482 -25.08195,-19.72669c-1.07983,-11.9785 8.39899,-22.56753 21.17153,-23.65127c12.77254,-1.08374 24.00212,7.74819 25.08195,19.72669z"/><path d="M99.71867,113.57192c1.07983,11.9785 -8.39899,22.56753 -21.17154,23.65128c-12.77254,1.08374 -24.00212,-7.7482 -25.08195,-19.72669c-1.07983,-11.9785 8.39899,-22.56753 21.17153,-23.65127c12.77254,-1.08374 24.00212,7.74819 25.08195,19.72669z"/><path d="M140.17049,79.92958c1.15182,12.77706 -8.95892,24.07203 -22.58298,25.22803c-13.62405,1.15599 -25.60226,-8.26474 -26.75408,-21.0418c-1.15182,-12.77706 8.95892,-24.07203 22.58296,-25.22802c13.62405,-1.15599 25.60226,8.26474 26.75408,21.0418z"/></g><g fill="#f3fffb" stroke="none" stroke-width="0" stroke-linecap="butt"><path d="M388.74905,87.22535c-1.57202,11.92102 -12.17704,20.35448 -23.68698,18.83667c-11.50995,-1.51781 -19.56623,-12.41213 -17.99421,-24.33314c1.57202,-11.92102 12.17704,-20.35448 23.68698,-18.83667c11.50995,1.51781 19.56623,12.41212 17.99421,24.33314z"/><path d="M418.3262,73.45141c-1.57202,11.92102 -12.84352,20.26659 -25.1756,18.64037c-12.33208,-1.62622 -21.05484,-12.60843 -19.48282,-24.52945c1.57202,-11.92102 12.84351,-20.26659 25.1756,-18.64037c12.33208,1.62622 21.05484,12.60843 19.48283,24.52944z"/><path d="M437.22354,113.79078c-1.57202,11.92102 -14.17647,20.09082 -28.15283,18.24776c-13.97636,-1.84305 -24.03206,-13.00103 -22.46005,-24.92205c1.57202,-11.92102 14.17646,-20.09081 28.15282,-18.24776c13.97636,1.84305 24.03207,13.00103 22.46006,24.92205z"/><path d="M400.25127,110.9447c-1.57202,11.92102 -12.84352,20.26659 -25.1756,18.64037c-12.33208,-1.62622 -21.05484,-12.60843 -19.48282,-24.52945c1.57202,-11.92102 12.84351,-20.26659 25.1756,-18.64037c12.33208,1.62622 21.05484,12.60843 19.48283,24.52944z"/><path d="M445.85214,86.60242c-1.67682,12.71575 -13.69976,21.6177 -26.85398,19.88306c-13.15422,-1.73464 -22.45849,-13.44899 -20.78168,-26.16475c1.67682,-12.71575 13.69975,-21.61769 26.85397,-19.88306c13.15422,1.73464 22.4585,13.44899 20.78169,26.16474z"/></g></g></g></svg>